<mxfile host="app.diagrams.net" modified="2023-06-30T14:15:11.453Z" agent="Mozilla/5.0 (Windows NT 10.0; Win64; x64) AppleWebKit/537.36 (KHTML, like Gecko) Chrome/114.0.0.0 Safari/537.36 Edg/114.0.1823.58" etag="ar5BgdOKPgSA2Q6WciAk" version="21.5.2" type="device">
  <diagram name="Page-1" id="2YBvvXClWsGukQMizWep">
    <mxGraphModel dx="2273" dy="784" grid="1" gridSize="10" guides="1" tooltips="1" connect="1" arrows="1" fold="1" page="1" pageScale="1" pageWidth="850" pageHeight="1100" math="0" shadow="0">
      <root>
        <mxCell id="0" />
        <mxCell id="1" parent="0" />
        <mxCell id="aM9ryv3xv72pqoxQDRHE-1" value="Instancia:Main" style="shape=umlLifeline;perimeter=lifelinePerimeter;whiteSpace=wrap;html=1;container=0;dropTarget=0;collapsible=0;recursiveResize=0;outlineConnect=0;portConstraint=eastwest;newEdgeStyle={&quot;edgeStyle&quot;:&quot;elbowEdgeStyle&quot;,&quot;elbow&quot;:&quot;vertical&quot;,&quot;curved&quot;:0,&quot;rounded&quot;:0};fontStyle=4" parent="1" vertex="1">
          <mxGeometry x="180" y="20" width="100" height="1240" as="geometry" />
        </mxCell>
        <mxCell id="zwrWhUBzXl8ZJSUmluqB-5" value="" style="endArrow=classic;html=1;rounded=0;" parent="1" edge="1">
          <mxGeometry width="50" height="50" relative="1" as="geometry">
            <mxPoint y="80" as="sourcePoint" />
            <mxPoint x="228" y="80" as="targetPoint" />
          </mxGeometry>
        </mxCell>
        <mxCell id="zwrWhUBzXl8ZJSUmluqB-6" value="comprarPasaje(cliente:Cliente,&lt;br&gt;&amp;nbsp;viaje:Viaje)" style="text;html=1;align=center;verticalAlign=middle;resizable=0;points=[];autosize=1;strokeColor=none;fillColor=none;" parent="1" vertex="1">
          <mxGeometry x="-25" y="40" width="190" height="40" as="geometry" />
        </mxCell>
        <mxCell id="zwrWhUBzXl8ZJSUmluqB-11" value="" style="endArrow=classic;html=1;rounded=0;" parent="1" target="zwrWhUBzXl8ZJSUmluqB-109" edge="1">
          <mxGeometry width="50" height="50" relative="1" as="geometry">
            <mxPoint x="228.75" y="980" as="sourcePoint" />
            <mxPoint x="423.25" y="980" as="targetPoint" />
          </mxGeometry>
        </mxCell>
        <mxCell id="zwrWhUBzXl8ZJSUmluqB-17" value="" style="endArrow=none;html=1;rounded=0;endFill=0;startArrow=classic;startFill=1;dashed=1;" parent="1" target="zwrWhUBzXl8ZJSUmluqB-109" edge="1">
          <mxGeometry width="50" height="50" relative="1" as="geometry">
            <mxPoint x="230.5" y="1010" as="sourcePoint" />
            <mxPoint x="425" y="1010" as="targetPoint" />
          </mxGeometry>
        </mxCell>
        <mxCell id="zwrWhUBzXl8ZJSUmluqB-23" value="viaje:Viaje" style="shape=umlLifeline;perimeter=lifelinePerimeter;whiteSpace=wrap;html=1;container=0;dropTarget=0;collapsible=0;recursiveResize=0;outlineConnect=0;portConstraint=eastwest;newEdgeStyle={&quot;edgeStyle&quot;:&quot;elbowEdgeStyle&quot;,&quot;elbow&quot;:&quot;vertical&quot;,&quot;curved&quot;:0,&quot;rounded&quot;:0};fontStyle=4" parent="1" vertex="1">
          <mxGeometry x="501" y="20" width="100" height="1230" as="geometry" />
        </mxCell>
        <mxCell id="zwrWhUBzXl8ZJSUmluqB-24" value="info: String" style="text;html=1;align=center;verticalAlign=middle;resizable=0;points=[];autosize=1;strokeColor=none;fillColor=none;" parent="1" vertex="1">
          <mxGeometry x="270" y="980" width="80" height="30" as="geometry" />
        </mxCell>
        <mxCell id="zwrWhUBzXl8ZJSUmluqB-27" value="" style="endArrow=classic;html=1;rounded=0;" parent="1" edge="1" target="zwrWhUBzXl8ZJSUmluqB-23">
          <mxGeometry width="50" height="50" relative="1" as="geometry">
            <mxPoint x="226" y="98" as="sourcePoint" />
            <mxPoint x="425" y="98" as="targetPoint" />
          </mxGeometry>
        </mxCell>
        <mxCell id="zwrWhUBzXl8ZJSUmluqB-28" value="verAsientos()" style="text;html=1;align=center;verticalAlign=middle;resizable=0;points=[];autosize=1;strokeColor=none;fillColor=none;" parent="1" vertex="1">
          <mxGeometry x="265" y="78" width="90" height="30" as="geometry" />
        </mxCell>
        <mxCell id="zwrWhUBzXl8ZJSUmluqB-29" value="" style="endArrow=none;html=1;rounded=0;endFill=0;startArrow=classic;startFill=1;dashed=1;" parent="1" edge="1" target="zwrWhUBzXl8ZJSUmluqB-23">
          <mxGeometry width="50" height="50" relative="1" as="geometry">
            <mxPoint x="230.5" y="120" as="sourcePoint" />
            <mxPoint x="424.50000000000045" y="120" as="targetPoint" />
          </mxGeometry>
        </mxCell>
        <mxCell id="zwrWhUBzXl8ZJSUmluqB-30" value="asientos: ArrayList&amp;lt;int&amp;gt;" style="text;html=1;align=center;verticalAlign=middle;resizable=0;points=[];autosize=1;strokeColor=none;fillColor=none;" parent="1" vertex="1">
          <mxGeometry x="251" y="100" width="150" height="30" as="geometry" />
        </mxCell>
        <mxCell id="zwrWhUBzXl8ZJSUmluqB-43" value="ocuparAsiento(num:int,pasaje:Pasaje )" style="text;html=1;align=center;verticalAlign=middle;resizable=0;points=[];autosize=1;strokeColor=none;fillColor=none;" parent="1" vertex="1">
          <mxGeometry x="225" y="245" width="230" height="30" as="geometry" />
        </mxCell>
        <mxCell id="zwrWhUBzXl8ZJSUmluqB-45" value="LOOP" style="shape=umlFrame;whiteSpace=wrap;html=1;pointerEvents=0;" parent="1" vertex="1">
          <mxGeometry x="69" y="146" width="1441" height="167" as="geometry" />
        </mxCell>
        <mxCell id="zwrWhUBzXl8ZJSUmluqB-46" value="" style="endArrow=classic;html=1;rounded=0;" parent="1" edge="1" target="zwrWhUBzXl8ZJSUmluqB-23">
          <mxGeometry width="50" height="50" relative="1" as="geometry">
            <mxPoint x="227.5" y="275" as="sourcePoint" />
            <mxPoint x="426.5" y="275" as="targetPoint" />
          </mxGeometry>
        </mxCell>
        <mxCell id="zwrWhUBzXl8ZJSUmluqB-47" value="[Para cada pasajero]" style="text;html=1;align=center;verticalAlign=middle;resizable=0;points=[];autosize=1;strokeColor=none;fillColor=none;" parent="1" vertex="1">
          <mxGeometry x="60" y="170" width="130" height="30" as="geometry" />
        </mxCell>
        <mxCell id="zwrWhUBzXl8ZJSUmluqB-61" value="c:Cliente" style="shape=umlLifeline;perimeter=lifelinePerimeter;whiteSpace=wrap;html=1;container=0;dropTarget=0;collapsible=0;recursiveResize=0;outlineConnect=0;portConstraint=eastwest;newEdgeStyle={&quot;edgeStyle&quot;:&quot;elbowEdgeStyle&quot;,&quot;elbow&quot;:&quot;vertical&quot;,&quot;curved&quot;:0,&quot;rounded&quot;:0};fontStyle=4" parent="1" vertex="1">
          <mxGeometry x="898" y="20" width="100" height="1230" as="geometry" />
        </mxCell>
        <mxCell id="zwrWhUBzXl8ZJSUmluqB-63" value="" style="endArrow=classic;html=1;rounded=0;" parent="1" edge="1">
          <mxGeometry width="50" height="50" relative="1" as="geometry">
            <mxPoint x="234" y="423" as="sourcePoint" />
            <mxPoint x="947.4999999999995" y="423" as="targetPoint" />
          </mxGeometry>
        </mxCell>
        <mxCell id="zwrWhUBzXl8ZJSUmluqB-64" value="getTarjetas()" style="text;html=1;align=center;verticalAlign=middle;resizable=0;points=[];autosize=1;strokeColor=none;fillColor=none;" parent="1" vertex="1">
          <mxGeometry x="240" y="398" width="90" height="30" as="geometry" />
        </mxCell>
        <mxCell id="zwrWhUBzXl8ZJSUmluqB-65" value="" style="endArrow=none;html=1;rounded=0;endFill=0;startArrow=classic;startFill=1;dashed=1;" parent="1" edge="1">
          <mxGeometry width="50" height="50" relative="1" as="geometry">
            <mxPoint x="229.54761904761926" y="450.04999999999995" as="sourcePoint" />
            <mxPoint x="950" y="450.05" as="targetPoint" />
          </mxGeometry>
        </mxCell>
        <mxCell id="zwrWhUBzXl8ZJSUmluqB-66" value="tarjetas:ArrayList&amp;lt;Tarjeta&amp;gt;" style="text;html=1;align=center;verticalAlign=middle;resizable=0;points=[];autosize=1;strokeColor=none;fillColor=none;" parent="1" vertex="1">
          <mxGeometry x="545" y="424" width="160" height="30" as="geometry" />
        </mxCell>
        <mxCell id="zwrWhUBzXl8ZJSUmluqB-68" value="" style="endArrow=classic;html=1;rounded=0;" parent="1" target="zwrWhUBzXl8ZJSUmluqB-95" edge="1">
          <mxGeometry width="50" height="50" relative="1" as="geometry">
            <mxPoint x="230" y="544" as="sourcePoint" />
            <mxPoint x="943.4999999999995" y="544" as="targetPoint" />
          </mxGeometry>
        </mxCell>
        <mxCell id="zwrWhUBzXl8ZJSUmluqB-69" value="getMarca()" style="edgeLabel;html=1;align=center;verticalAlign=middle;resizable=0;points=[];" parent="zwrWhUBzXl8ZJSUmluqB-68" vertex="1" connectable="0">
          <mxGeometry x="-0.5922" y="4" relative="1" as="geometry">
            <mxPoint y="-5" as="offset" />
          </mxGeometry>
        </mxCell>
        <mxCell id="zwrWhUBzXl8ZJSUmluqB-70" value="" style="endArrow=none;html=1;rounded=0;endFill=0;startArrow=classic;startFill=1;dashed=1;" parent="1" target="zwrWhUBzXl8ZJSUmluqB-95" edge="1">
          <mxGeometry width="50" height="50" relative="1" as="geometry">
            <mxPoint x="229.99761904761925" y="564" as="sourcePoint" />
            <mxPoint x="950.45" y="564" as="targetPoint" />
          </mxGeometry>
        </mxCell>
        <mxCell id="zwrWhUBzXl8ZJSUmluqB-71" value="marca:String" style="text;html=1;align=center;verticalAlign=middle;resizable=0;points=[];autosize=1;strokeColor=none;fillColor=none;" parent="1" vertex="1">
          <mxGeometry x="329" y="540" width="90" height="30" as="geometry" />
        </mxCell>
        <mxCell id="zwrWhUBzXl8ZJSUmluqB-72" value="" style="endArrow=classic;html=1;rounded=0;" parent="1" target="zwrWhUBzXl8ZJSUmluqB-95" edge="1">
          <mxGeometry width="50" height="50" relative="1" as="geometry">
            <mxPoint x="230" y="584" as="sourcePoint" />
            <mxPoint x="943.4999999999995" y="584" as="targetPoint" />
          </mxGeometry>
        </mxCell>
        <mxCell id="zwrWhUBzXl8ZJSUmluqB-73" value="getUltDig()" style="edgeLabel;html=1;align=center;verticalAlign=middle;resizable=0;points=[];" parent="zwrWhUBzXl8ZJSUmluqB-72" vertex="1" connectable="0">
          <mxGeometry x="-0.5922" y="4" relative="1" as="geometry">
            <mxPoint x="-2" y="-4" as="offset" />
          </mxGeometry>
        </mxCell>
        <mxCell id="zwrWhUBzXl8ZJSUmluqB-74" value="" style="endArrow=none;html=1;rounded=0;endFill=0;startArrow=classic;startFill=1;dashed=1;" parent="1" target="zwrWhUBzXl8ZJSUmluqB-95" edge="1">
          <mxGeometry width="50" height="50" relative="1" as="geometry">
            <mxPoint x="229.99761904761925" y="601" as="sourcePoint" />
            <mxPoint x="950.45" y="601" as="targetPoint" />
          </mxGeometry>
        </mxCell>
        <mxCell id="zwrWhUBzXl8ZJSUmluqB-75" value="ultdig: int" style="text;html=1;align=center;verticalAlign=middle;resizable=0;points=[];autosize=1;strokeColor=none;fillColor=none;" parent="1" vertex="1">
          <mxGeometry x="336" y="578" width="70" height="30" as="geometry" />
        </mxCell>
        <mxCell id="zwrWhUBzXl8ZJSUmluqB-80" value="ALT" style="shape=umlFrame;whiteSpace=wrap;html=1;pointerEvents=0;" parent="1" vertex="1">
          <mxGeometry x="70" y="470" width="1440" height="490" as="geometry" />
        </mxCell>
        <mxCell id="zwrWhUBzXl8ZJSUmluqB-84" value="[tarjetas != null]" style="text;html=1;align=center;verticalAlign=middle;resizable=0;points=[];autosize=1;strokeColor=none;fillColor=none;" parent="1" vertex="1">
          <mxGeometry x="60" y="496" width="110" height="30" as="geometry" />
        </mxCell>
        <mxCell id="zwrWhUBzXl8ZJSUmluqB-85" value="LOOP" style="shape=umlFrame;whiteSpace=wrap;html=1;pointerEvents=0;" parent="1" vertex="1">
          <mxGeometry x="90" y="520" width="1410" height="150" as="geometry" />
        </mxCell>
        <mxCell id="zwrWhUBzXl8ZJSUmluqB-86" value="[Para cada tarjeta]" style="text;html=1;align=center;verticalAlign=middle;resizable=0;points=[];autosize=1;strokeColor=none;fillColor=none;" parent="1" vertex="1">
          <mxGeometry x="80" y="548" width="120" height="30" as="geometry" />
        </mxCell>
        <mxCell id="zwrWhUBzXl8ZJSUmluqB-87" value="" style="endArrow=none;dashed=1;html=1;dashPattern=1 3;strokeWidth=2;rounded=0;exitX=-0.003;exitY=0.725;exitDx=0;exitDy=0;exitPerimeter=0;entryX=1.001;entryY=0.756;entryDx=0;entryDy=0;entryPerimeter=0;" parent="1" target="zwrWhUBzXl8ZJSUmluqB-80" edge="1">
          <mxGeometry width="50" height="50" relative="1" as="geometry">
            <mxPoint x="69.75999999999976" y="847" as="sourcePoint" />
            <mxPoint x="1151.9199999999996" y="844.1200000000001" as="targetPoint" />
          </mxGeometry>
        </mxCell>
        <mxCell id="zwrWhUBzXl8ZJSUmluqB-89" value="[tarjetas = null]" style="text;html=1;align=center;verticalAlign=middle;resizable=0;points=[];autosize=1;strokeColor=none;fillColor=none;" parent="1" vertex="1">
          <mxGeometry x="70" y="850" width="100" height="30" as="geometry" />
        </mxCell>
        <mxCell id="zwrWhUBzXl8ZJSUmluqB-90" value="OPT" style="shape=umlFrame;whiteSpace=wrap;html=1;pointerEvents=0;" parent="1" vertex="1">
          <mxGeometry x="90" y="692" width="1410" height="108" as="geometry" />
        </mxCell>
        <mxCell id="zwrWhUBzXl8ZJSUmluqB-91" value="[nueva = true]" style="text;html=1;align=center;verticalAlign=middle;resizable=0;points=[];autosize=1;strokeColor=none;fillColor=none;" parent="1" vertex="1">
          <mxGeometry x="80" y="718" width="100" height="30" as="geometry" />
        </mxCell>
        <mxCell id="zwrWhUBzXl8ZJSUmluqB-92" value="" style="endArrow=classic;html=1;rounded=0;" parent="1" edge="1">
          <mxGeometry width="50" height="50" relative="1" as="geometry">
            <mxPoint x="230" y="732" as="sourcePoint" />
            <mxPoint x="639.4999999999995" y="732" as="targetPoint" />
          </mxGeometry>
        </mxCell>
        <mxCell id="zwrWhUBzXl8ZJSUmluqB-94" value="tarjeta2:Tarjeta" style="shape=umlLifeline;perimeter=lifelinePerimeter;whiteSpace=wrap;html=1;container=0;dropTarget=0;collapsible=0;recursiveResize=0;outlineConnect=0;portConstraint=eastwest;newEdgeStyle={&quot;edgeStyle&quot;:&quot;elbowEdgeStyle&quot;,&quot;elbow&quot;:&quot;vertical&quot;,&quot;curved&quot;:0,&quot;rounded&quot;:0};fontStyle=4" parent="1" vertex="1">
          <mxGeometry x="590" y="680" width="100" height="1219" as="geometry" />
        </mxCell>
        <mxCell id="zwrWhUBzXl8ZJSUmluqB-95" value="tarjeta1:Tarjeta" style="shape=umlLifeline;perimeter=lifelinePerimeter;whiteSpace=wrap;html=1;container=0;dropTarget=0;collapsible=0;recursiveResize=0;outlineConnect=0;portConstraint=eastwest;newEdgeStyle={&quot;edgeStyle&quot;:&quot;elbowEdgeStyle&quot;,&quot;elbow&quot;:&quot;vertical&quot;,&quot;curved&quot;:0,&quot;rounded&quot;:0};fontStyle=4" parent="1" vertex="1">
          <mxGeometry x="1010" y="20" width="100" height="1219" as="geometry" />
        </mxCell>
        <mxCell id="zwrWhUBzXl8ZJSUmluqB-96" value="&amp;lt;&amp;lt;create&amp;gt;&amp;gt;" style="text;html=1;align=center;verticalAlign=middle;resizable=0;points=[];autosize=1;strokeColor=none;fillColor=none;" parent="1" vertex="1">
          <mxGeometry x="280" y="706" width="80" height="30" as="geometry" />
        </mxCell>
        <mxCell id="zwrWhUBzXl8ZJSUmluqB-97" value="" style="endArrow=classic;html=1;rounded=0;" parent="1" target="zwrWhUBzXl8ZJSUmluqB-61" edge="1">
          <mxGeometry width="50" height="50" relative="1" as="geometry">
            <mxPoint x="230" y="761.57" as="sourcePoint" />
            <mxPoint x="590" y="761.57" as="targetPoint" />
          </mxGeometry>
        </mxCell>
        <mxCell id="zwrWhUBzXl8ZJSUmluqB-98" value="addTarjeta(nueva)" style="text;html=1;align=center;verticalAlign=middle;resizable=0;points=[];autosize=1;strokeColor=none;fillColor=none;" parent="1" vertex="1">
          <mxGeometry x="256" y="737" width="120" height="30" as="geometry" />
        </mxCell>
        <mxCell id="zwrWhUBzXl8ZJSUmluqB-99" value="" style="endArrow=classic;html=1;rounded=0;" parent="1" target="zwrWhUBzXl8ZJSUmluqB-103" edge="1">
          <mxGeometry width="50" height="50" relative="1" as="geometry">
            <mxPoint x="231" y="874" as="sourcePoint" />
            <mxPoint x="591" y="874" as="targetPoint" />
          </mxGeometry>
        </mxCell>
        <mxCell id="zwrWhUBzXl8ZJSUmluqB-100" value="&amp;lt;&amp;lt;create&amp;gt;&amp;gt;" style="text;html=1;align=center;verticalAlign=middle;resizable=0;points=[];autosize=1;strokeColor=none;fillColor=none;" parent="1" vertex="1">
          <mxGeometry x="276" y="850" width="80" height="30" as="geometry" />
        </mxCell>
        <mxCell id="zwrWhUBzXl8ZJSUmluqB-101" value="" style="endArrow=classic;html=1;rounded=0;" parent="1" edge="1">
          <mxGeometry width="50" height="50" relative="1" as="geometry">
            <mxPoint x="230" y="917.57" as="sourcePoint" />
            <mxPoint x="948" y="918" as="targetPoint" />
          </mxGeometry>
        </mxCell>
        <mxCell id="zwrWhUBzXl8ZJSUmluqB-102" value="addTarjeta(nueva)" style="text;html=1;align=center;verticalAlign=middle;resizable=0;points=[];autosize=1;strokeColor=none;fillColor=none;" parent="1" vertex="1">
          <mxGeometry x="252" y="893" width="120" height="30" as="geometry" />
        </mxCell>
        <mxCell id="zwrWhUBzXl8ZJSUmluqB-103" value="tarjeta3:Tarjeta" style="shape=umlLifeline;perimeter=lifelinePerimeter;whiteSpace=wrap;html=1;container=0;dropTarget=0;collapsible=0;recursiveResize=0;outlineConnect=0;portConstraint=eastwest;newEdgeStyle={&quot;edgeStyle&quot;:&quot;elbowEdgeStyle&quot;,&quot;elbow&quot;:&quot;vertical&quot;,&quot;curved&quot;:0,&quot;rounded&quot;:0};fontStyle=4" parent="1" vertex="1">
          <mxGeometry x="640" y="821" width="100" height="1079" as="geometry" />
        </mxCell>
        <mxCell id="zwrWhUBzXl8ZJSUmluqB-105" value="getInfo()" style="text;html=1;align=center;verticalAlign=middle;resizable=0;points=[];autosize=1;strokeColor=none;fillColor=none;" parent="1" vertex="1">
          <mxGeometry x="275" y="956" width="70" height="30" as="geometry" />
        </mxCell>
        <mxCell id="zwrWhUBzXl8ZJSUmluqB-109" value="pasaje:Pasaje" style="shape=umlLifeline;perimeter=lifelinePerimeter;whiteSpace=wrap;html=1;container=0;dropTarget=0;collapsible=0;recursiveResize=0;outlineConnect=0;portConstraint=eastwest;newEdgeStyle={&quot;edgeStyle&quot;:&quot;elbowEdgeStyle&quot;,&quot;elbow&quot;:&quot;vertical&quot;,&quot;curved&quot;:0,&quot;rounded&quot;:0};fontStyle=4" parent="1" vertex="1">
          <mxGeometry x="1120" y="176" width="100" height="1219" as="geometry" />
        </mxCell>
        <mxCell id="CUK3fJQeQiT2fvKhgVuA-5" value="" style="endArrow=classic;html=1;rounded=0;" edge="1" parent="1">
          <mxGeometry width="50" height="50" relative="1" as="geometry">
            <mxPoint x="232" y="1058" as="sourcePoint" />
            <mxPoint x="945.5" y="1058" as="targetPoint" />
          </mxGeometry>
        </mxCell>
        <mxCell id="CUK3fJQeQiT2fvKhgVuA-6" value="Pagar(tarjeta:Tarjeta, pasajes:ArrayList&amp;lt;Pasaje&amp;gt;)" style="text;html=1;align=center;verticalAlign=middle;resizable=0;points=[];autosize=1;strokeColor=none;fillColor=none;" vertex="1" parent="1">
          <mxGeometry x="227" y="1027" width="290" height="30" as="geometry" />
        </mxCell>
        <mxCell id="CUK3fJQeQiT2fvKhgVuA-16" value="" style="endArrow=classic;html=1;rounded=0;" edge="1" parent="1" target="zwrWhUBzXl8ZJSUmluqB-109">
          <mxGeometry width="50" height="50" relative="1" as="geometry">
            <mxPoint x="230" y="230" as="sourcePoint" />
            <mxPoint x="448.5" y="230" as="targetPoint" />
          </mxGeometry>
        </mxCell>
        <mxCell id="CUK3fJQeQiT2fvKhgVuA-17" value="&amp;lt;&amp;lt;create&amp;gt;&amp;gt; (nombre:String,apellido:String,&lt;br&gt;viaje:Viaje, dni:String, mail:String)" style="text;html=1;align=center;verticalAlign=middle;resizable=0;points=[];autosize=1;strokeColor=none;fillColor=none;" vertex="1" parent="1">
          <mxGeometry x="244" y="187" width="250" height="40" as="geometry" />
        </mxCell>
        <mxCell id="CUK3fJQeQiT2fvKhgVuA-22" value="" style="endArrow=classic;html=1;rounded=0;" edge="1" parent="1">
          <mxGeometry width="50" height="50" relative="1" as="geometry">
            <mxPoint x="952" y="1079" as="sourcePoint" />
            <mxPoint x="950" y="1107" as="targetPoint" />
            <Array as="points">
              <mxPoint x="985" y="1079" />
              <mxPoint x="985" y="1107" />
            </Array>
          </mxGeometry>
        </mxCell>
        <mxCell id="CUK3fJQeQiT2fvKhgVuA-23" value="notificarMail(pasaje)" style="text;html=1;align=center;verticalAlign=middle;resizable=0;points=[];autosize=1;strokeColor=none;fillColor=none;" vertex="1" parent="1">
          <mxGeometry x="975" y="1078" width="130" height="30" as="geometry" />
        </mxCell>
        <mxCell id="CUK3fJQeQiT2fvKhgVuA-24" value="LOOP" style="shape=umlFrame;whiteSpace=wrap;html=1;pointerEvents=0;" vertex="1" parent="1">
          <mxGeometry x="70" y="1067" width="1440" height="70" as="geometry" />
        </mxCell>
        <mxCell id="CUK3fJQeQiT2fvKhgVuA-25" value="[Por cada pasaje de pasajes]" style="text;html=1;align=center;verticalAlign=middle;resizable=0;points=[];autosize=1;strokeColor=none;fillColor=none;" vertex="1" parent="1">
          <mxGeometry x="61" y="1090" width="180" height="30" as="geometry" />
        </mxCell>
      </root>
    </mxGraphModel>
  </diagram>
</mxfile>
